<svg width="282" height="350" viewBox="0 0 282 350" fill="none" xmlns="http://www.w3.org/2000/svg">
    <mask id="mask0_101_41" style="mask-type:luminance" maskUnits="userSpaceOnUse" x="0" y="0"
        width="282" height="350">
        <path
            d="M8.06951 27.233C8.26929 19.9426 11.3057 13.0178 16.5329 7.93184C21.76 2.84587 28.7653 0.000128377 36.0585 0L253.445 0C257.186 6.58599e-05 260.89 0.750005 264.336 2.20551C267.783 3.66102 270.903 5.79257 273.513 8.47425C276.122 11.1559 278.167 14.3333 279.527 17.8187C280.888 21.3041 281.536 25.0269 281.434 28.767L273.376 322.767C273.176 330.057 270.139 336.982 264.912 342.068C259.685 347.154 252.68 350 245.387 350H28.0005C24.2589 350 20.5552 349.25 17.1083 347.795C13.6614 346.339 10.5411 344.208 7.93184 341.526C5.32259 338.844 3.27727 335.667 1.91673 332.181C0.556186 328.696 -0.0919856 324.973 0.0105078 321.233L8.06951 27.233Z"
            fill="white" />
    </mask>
    <g mask="url(#mask0_101_41)">
        <path opacity="0.235"
            d="M257.879 -23.8741C257.879 -23.8741 101.789 39.7012 186.692 207.368C271.595 375.035 95.813 429.172 95.813 429.172L277.594 487.703L482.172 261.309L438.859 86.1263L279.184 -60.4315L257.879 -23.8741Z"
            fill="url(#paint0_linear_101_41)" />
    </g>
    <defs>
        <linearGradient id="paint0_linear_101_41" x1="422.057" y1="69.3241" x2="79.0108" y2="412.37"
            gradientUnits="userSpaceOnUse">
            <stop stop-color="#EEEEEE" stop-opacity="0" />
            <stop offset="1" stop-color="#D8D8D8" />
        </linearGradient>
    </defs>
</svg>